# xmcd CD database file
#
# Track frame offsets:
#	150
#	11335
#	29905
#	45986
#	66047
#	81920
#	106946
#	123322
#	145261
#	169490
#	184562
#	201481
#	216252
#
# Disc length: 3305 seconds
#
# Revision: 0
# Processed by: cddbd v1.5.1PL0 Copyright (c) Steve Scherf et al.
# Submitted via: CDex 1.51
#
DISCID=ba0ce70d
DTITLE=Blue Haven - High Road
DYEAR=2004
DGENRE=Blues
TTITLE0=Left Field
TTITLE1=Let's Go
TTITLE2=High Class Living
TTITLE3=Legs Like Bettie Page
TTITLE4=Rocket 88
TTITLE5=Devil In My Bottle
TTITLE6=No Way
TTITLE7=Tattoo
TTITLE8=Moon Over
TTITLE9=Shake Your Moneymaker
TTITLE10=Albert's Groove
TTITLE11=Shakin' All Over
TTITLE12=Walk My Way
EXTD=YEAR: 2004
EXTT0=
EXTT1=
EXTT2=
EXTT3=
EXTT4=
EXTT5=
EXTT6=
EXTT7=
EXTT8=
EXTT9=
EXTT10=
EXTT11=
EXTT12=
PLAYORDER=
